<svg width="24" height="34" viewBox="0 0 24 34" fill="none" xmlns="http://www.w3.org/2000/svg">
<path d="M15.66 33.485C15.42 33.485 15.12 33.38 14.76 33.17C14.07 32.63 13.545 32.12 13.185 31.64C12.975 31.43 12.78 31.205 12.6 30.965L11.025 29.39C8.745 27.62 7.14 26.195 6.21 25.115C5.97 24.905 5.73 24.68 5.49 24.44C5.25 24.17 5.085 23.99 4.995 23.9L4.41 23.225C3.3 21.845 2.355 20.51 1.575 19.22C1.275 18.68 1.05 18.245 0.9 17.915C0.78 17.555 0.72 17.225 0.72 16.925C0.72 16.415 1.08 15.665 1.8 14.675C1.92 14.495 2.085 14.27 2.295 14C2.535 13.73 2.79 13.385 3.06 12.965L3.87 11.93L4.86 10.67C4.89 10.58 4.98 10.475 5.13 10.355C5.31 10.235 5.445 10.13 5.535 10.04C6.675 8.99 7.68 8 8.55 7.07C9.21 6.47 10.035 5.585 11.025 4.415L12.15 2.93C12.51 2.51 13.005 2.06 13.635 1.58C13.845 1.4 14.04 1.25 14.22 1.13C14.43 0.979998 14.61 0.844998 14.76 0.724998C15.06 0.544998 15.36 0.454998 15.66 0.454998C16.35 0.454998 17.4 0.934999 18.81 1.895C20.28 3.035 21.42 4.025 22.23 4.865C23.31 6.155 23.85 7.01 23.85 7.43C23.85 7.43 23.745 7.58 23.535 7.88C22.635 8.87 21.93 9.62 21.42 10.13C21.27 10.31 21.045 10.55 20.745 10.85C20.445 11.15 20.175 11.405 19.935 11.615L17.055 14.675L15.975 15.8C15.615 16.16 15.405 16.4 15.345 16.52V16.565C15.345 16.805 15.465 17.06 15.705 17.33C16.215 18.11 16.95 19.04 17.91 20.12L19.35 21.785L20.835 23.495L21.645 24.35C22.365 25.13 22.845 25.67 23.085 25.97C23.295 26.21 23.4 26.375 23.4 26.465C23.4 26.945 22.89 27.77 21.87 28.94C21.09 29.87 20.01 30.89 18.63 32C17.28 32.99 16.29 33.485 15.66 33.485Z" fill="white"/>
</svg>
