<svg width="25" height="18" viewBox="0 0 25 18" fill="none" xmlns="http://www.w3.org/2000/svg">
<path fill-rule="evenodd" clip-rule="evenodd" d="M16.6614 15.9185C17.2678 16.694 17.9955 17.5716 17.9955 17.5716C22.4627 17.4287 24.1809 14.4696 24.1809 14.4696C24.1809 7.89819 21.2701 2.57172 21.2701 2.57172C18.3594 0.367657 15.5901 0.428881 15.5901 0.428881L15.3071 0.755408C18.7434 1.81662 20.3403 3.34722 20.3403 3.34722C18.2381 2.18396 16.1763 1.61254 14.256 1.38806C12.8006 1.22479 11.4059 1.26561 10.1729 1.42887C10.067 1.42887 9.97652 1.44442 9.87455 1.46195C9.85972 1.4645 9.84464 1.46709 9.82924 1.46969C9.12176 1.53091 7.40361 1.79621 5.24075 2.75539C4.49285 3.10232 4.04815 3.34722 4.04815 3.34722C4.04815 3.34722 5.72588 1.73499 9.36433 0.673776L9.16219 0.428881C9.16219 0.428881 6.39293 0.367657 3.48217 2.57172C3.48217 2.57172 0.571411 7.89819 0.571411 14.4696C0.571411 14.4696 2.26935 17.4287 6.73656 17.5716C6.73656 17.5716 7.48446 16.6532 8.09087 15.8777C5.52374 15.1022 4.55349 13.4696 4.55349 13.4696C4.55349 13.4696 4.75563 13.6124 5.11947 13.8165C5.13969 13.8369 5.1599 13.8573 5.20033 13.8777C5.23065 13.8981 5.26097 13.9134 5.29129 13.9287C5.32161 13.944 5.35193 13.9594 5.38225 13.9798C5.88759 14.2655 6.39293 14.49 6.85784 14.6736C7.6866 15.0002 8.67706 15.3267 9.82924 15.5512C11.3453 15.8369 13.1241 15.9389 15.0646 15.5716C16.0146 15.4083 16.9849 15.1226 17.9955 14.694C18.703 14.4287 19.4913 14.041 20.3201 13.49C20.3201 13.49 19.3094 15.1634 16.6614 15.9185ZM6.5343 10.3063C6.5343 9.0614 7.44391 8.041 8.59609 8.041C9.74827 8.041 10.6781 9.0614 10.6579 10.3063C10.6579 11.5512 9.74827 12.5716 8.59609 12.5716C7.46413 12.5716 6.5343 11.5512 6.5343 10.3063ZM13.9123 10.3063C13.9123 9.0614 14.8219 8.041 15.9741 8.041C17.1262 8.041 18.0358 9.0614 18.0358 10.3063C18.0358 11.5512 17.1262 12.5716 15.9741 12.5716C14.8421 12.5716 13.9123 11.5512 13.9123 10.3063Z" fill="black"/>
</svg>
