<svg width="33" height="24" viewBox="0 0 33 24" fill="none" xmlns="http://www.w3.org/2000/svg">
<path fill-rule="evenodd" clip-rule="evenodd" d="M22.0744 21.2509C22.9063 22.3148 23.9046 23.5188 23.9046 23.5188C30.0333 23.3228 32.3905 19.263 32.3905 19.263C32.3905 10.2476 28.3972 2.94005 28.3972 2.94005C24.4038 -0.0837617 20.6046 0.000232669 20.6046 0.000232669L20.2163 0.448204C24.9307 1.90411 27.1215 4.00398 27.1215 4.00398C24.2374 2.40808 21.4088 1.62413 18.7743 1.31615C16.7776 1.09216 14.8641 1.14816 13.1725 1.37215C13.0273 1.37215 12.9031 1.39348 12.7632 1.41753C12.7429 1.42103 12.7222 1.42459 12.7011 1.42814C11.7305 1.51214 9.37328 1.87612 6.406 3.19203C5.37993 3.668 4.76984 4.00398 4.76984 4.00398C4.76984 4.00398 7.07156 1.79212 12.0632 0.336212L11.7859 0.000232669C11.7859 0.000232669 7.9867 -0.0837617 3.99335 2.94005C3.99335 2.94005 0 10.2476 0 19.263C0 19.263 2.32945 23.3228 8.45814 23.5188C8.45814 23.5188 9.48421 22.2588 10.3162 21.1949C6.79424 20.131 5.46313 17.8911 5.46313 17.8911C5.46313 17.8911 5.74044 18.0871 6.23961 18.3671C6.26734 18.3951 6.29507 18.4231 6.35054 18.4511C6.39214 18.4791 6.43373 18.5001 6.47533 18.5211C6.51693 18.5421 6.55852 18.5631 6.60012 18.5911C7.29341 18.983 7.9867 19.291 8.62453 19.543C9.76153 19.991 11.1204 20.439 12.7011 20.7469C14.7809 21.1389 17.2213 21.2789 19.8836 20.7749C21.1869 20.5509 22.5181 20.159 23.9046 19.571C24.8752 19.207 25.9568 18.6751 27.0938 17.9191C27.0938 17.9191 25.7072 20.215 22.0744 21.2509ZM8.18064 13.5514C8.18064 11.8435 9.42857 10.4436 11.0093 10.4436C12.59 10.4436 13.8656 11.8435 13.8379 13.5514C13.8379 15.2593 12.59 16.6592 11.0093 16.6592C9.4563 16.6592 8.18064 15.2593 8.18064 13.5514ZM18.3027 13.5514C18.3027 11.8435 19.5506 10.4436 21.1313 10.4436C22.712 10.4436 23.9599 11.8435 23.9599 13.5514C23.9599 15.2593 22.712 16.6592 21.1313 16.6592C19.5783 16.6592 18.3027 15.2593 18.3027 13.5514Z" fill="white"/>
</svg>
