<svg width="21" height="17" viewBox="0 0 21 17" fill="none" xmlns="http://www.w3.org/2000/svg">
<path d="M20.9524 2.24998C20.1991 2.57538 19.3894 2.79453 18.5396 2.89332C19.4073 2.38778 20.0737 1.58672 20.3868 0.632092C19.5754 1.10028 18.6761 1.44062 17.7189 1.62408C16.9536 0.829659 15.8607 0.333252 14.6526 0.333252C11.9403 0.333252 9.94731 2.79536 10.5599 5.35128C7.06954 5.18111 3.97422 3.55409 1.90185 1.08118C0.801256 2.91822 1.33108 5.32139 3.20124 6.53834C2.51358 6.51676 1.86517 6.3333 1.29951 6.02699C1.25344 7.92048 2.64838 9.69193 4.6687 10.0862C4.07745 10.2423 3.42989 10.2788 2.77124 10.156C3.30533 11.7797 4.8564 12.9609 6.69585 12.9941C4.92978 14.3414 2.70469 14.9432 0.476196 14.6875C2.33527 15.8472 4.54414 16.5238 6.91597 16.5238C14.7157 16.5238 19.1224 10.1145 18.8562 4.36594C19.6769 3.78901 20.3893 3.0693 20.9524 2.24998Z" fill="black"/>
</svg>
